<svg xmlns="http://www.w3.org/2000/svg" viewBox="0 0 800 450" font-family="'Inter','Segoe UI',system-ui,-apple-system,sans-serif">
  <rect width="800" height="450" fill="#000000"/>
  <text x="400" y="34" text-anchor="middle" fill="#f5f5f5" font-size="18" font-weight="700">Auth-Flow Load Latency</text>
  <text x="25" y="210" text-anchor="middle" fill="#a3a3a3" font-size="12" transform="rotate(-90,25,210)">Latency (ms)</text>
  <line x1="80" y1="360.0" x2="770" y2="360.0" stroke="#2a2a2a" stroke-width="0.5"/>
  <text x="70" y="364.0" text-anchor="end" fill="#a3a3a3" font-size="11">0.00</text>
  <line x1="80" y1="300.0" x2="770" y2="300.0" stroke="#2a2a2a" stroke-width="0.5" stroke-dasharray="4,4"/>
  <text x="70" y="304.0" text-anchor="end" fill="#a3a3a3" font-size="11">100</text>
  <line x1="80" y1="240.0" x2="770" y2="240.0" stroke="#2a2a2a" stroke-width="0.5" stroke-dasharray="4,4"/>
  <text x="70" y="244.0" text-anchor="end" fill="#a3a3a3" font-size="11">200</text>
  <line x1="80" y1="180.0" x2="770" y2="180.0" stroke="#2a2a2a" stroke-width="0.5" stroke-dasharray="4,4"/>
  <text x="70" y="184.0" text-anchor="end" fill="#a3a3a3" font-size="11">300</text>
  <line x1="80" y1="120.0" x2="770" y2="120.0" stroke="#2a2a2a" stroke-width="0.5" stroke-dasharray="4,4"/>
  <text x="70" y="124.0" text-anchor="end" fill="#a3a3a3" font-size="11">400</text>
  <line x1="80" y1="60.0" x2="770" y2="60.0" stroke="#2a2a2a" stroke-width="0.5" stroke-dasharray="4,4"/>
  <text x="70" y="64.0" text-anchor="end" fill="#a3a3a3" font-size="11">500</text>
  <rect x="134.2" y="318.8" width="75.7" height="41.2" fill="#3b82f6" rx="3" opacity="0.9"/>
  <text x="172.0" y="312.8" text-anchor="middle" fill="#f5f5f5" font-size="11" font-weight="500">68.7</text>
  <rect x="214.7" y="206.2" width="75.7" height="153.8" fill="#eab308" rx="3" opacity="0.9"/>
  <text x="252.5" y="200.2" text-anchor="middle" fill="#f5f5f5" font-size="11" font-weight="500">256</text>
  <rect x="295.2" y="164.3" width="75.7" height="195.7" fill="#ef4444" rx="3" opacity="0.9"/>
  <text x="333.0" y="158.3" text-anchor="middle" fill="#f5f5f5" font-size="11" font-weight="500">326</text>
  <text x="252.5" y="382" text-anchor="middle" fill="#f5f5f5" font-size="13" font-weight="500">baseline</text>
  <rect x="479.2" y="324.5" width="75.7" height="35.5" fill="#3b82f6" rx="3" opacity="0.9"/>
  <text x="517.0" y="318.5" text-anchor="middle" fill="#f5f5f5" font-size="11" font-weight="500">59.1</text>
  <rect x="559.7" y="225.2" width="75.7" height="134.8" fill="#eab308" rx="3" opacity="0.9"/>
  <text x="597.5" y="219.2" text-anchor="middle" fill="#f5f5f5" font-size="11" font-weight="500">225</text>
  <rect x="640.2" y="186.9" width="75.7" height="173.1" fill="#ef4444" rx="3" opacity="0.9"/>
  <text x="678.0" y="180.9" text-anchor="middle" fill="#f5f5f5" font-size="11" font-weight="500">288</text>
  <text x="597.5" y="382" text-anchor="middle" fill="#f5f5f5" font-size="13" font-weight="500">opt-v1</text>
  <line x1="80" y1="60" x2="80" y2="360" stroke="#333333" stroke-width="1"/>
  <line x1="80" y1="360" x2="770" y2="360" stroke="#333333" stroke-width="1"/>
  <rect x="321.3" y="423" width="14" height="14" fill="#3b82f6" rx="3"/>
  <text x="341.3" y="434" fill="#a3a3a3" font-size="12">p50</text>
  <rect x="379.8" y="423" width="14" height="14" fill="#eab308" rx="3"/>
  <text x="399.8" y="434" fill="#a3a3a3" font-size="12">p95</text>
  <rect x="438.3" y="423" width="14" height="14" fill="#ef4444" rx="3"/>
  <text x="458.3" y="434" fill="#a3a3a3" font-size="12">p99</text>
</svg>
