<svg xmlns="http://www.w3.org/2000/svg" viewBox="0 0 800 450" font-family="'Inter','Segoe UI',system-ui,-apple-system,sans-serif">
  <rect width="800" height="450" fill="#000000"/>
  <text x="400" y="34" text-anchor="middle" fill="#f5f5f5" font-size="18" font-weight="700">Average Response Time Under Stress</text>
  <text x="25" y="210" text-anchor="middle" fill="#a3a3a3" font-size="12" transform="rotate(-90,25,210)">Avg Duration (ms)</text>
  <line x1="80" y1="360.0" x2="770" y2="360.0" stroke="#2a2a2a" stroke-width="0.5"/>
  <text x="70" y="364.0" text-anchor="end" fill="#a3a3a3" font-size="11">0.00</text>
  <line x1="80" y1="300.0" x2="770" y2="300.0" stroke="#2a2a2a" stroke-width="0.5" stroke-dasharray="4,4"/>
  <text x="70" y="304.0" text-anchor="end" fill="#a3a3a3" font-size="11">1.0K</text>
  <line x1="80" y1="240.0" x2="770" y2="240.0" stroke="#2a2a2a" stroke-width="0.5" stroke-dasharray="4,4"/>
  <text x="70" y="244.0" text-anchor="end" fill="#a3a3a3" font-size="11">2.0K</text>
  <line x1="80" y1="180.0" x2="770" y2="180.0" stroke="#2a2a2a" stroke-width="0.5" stroke-dasharray="4,4"/>
  <text x="70" y="184.0" text-anchor="end" fill="#a3a3a3" font-size="11">3.0K</text>
  <line x1="80" y1="120.0" x2="770" y2="120.0" stroke="#2a2a2a" stroke-width="0.5" stroke-dasharray="4,4"/>
  <text x="70" y="124.0" text-anchor="end" fill="#a3a3a3" font-size="11">4.0K</text>
  <line x1="80" y1="60.0" x2="770" y2="60.0" stroke="#2a2a2a" stroke-width="0.5" stroke-dasharray="4,4"/>
  <text x="70" y="64.0" text-anchor="end" fill="#a3a3a3" font-size="11">5.0K</text>
  <rect x="116.1" y="359.0" width="50.4" height="1.0" fill="#ef4444" rx="3" opacity="0.9"/>
  <text x="141.3" y="353.0" text-anchor="middle" fill="#f5f5f5" font-size="11" font-weight="500">1.03</text>
  <rect x="169.8" y="359.0" width="50.4" height="1.0" fill="#eab308" rx="3" opacity="0.9"/>
  <text x="195.0" y="353.0" text-anchor="middle" fill="#f5f5f5" font-size="11" font-weight="500">1.06</text>
  <rect x="223.4" y="359.0" width="50.4" height="1.0" fill="#22c55e" rx="3" opacity="0.9"/>
  <text x="248.7" y="353.0" text-anchor="middle" fill="#f5f5f5" font-size="11" font-weight="500">0.00</text>
  <text x="195.0" y="382" text-anchor="middle" fill="#f5f5f5" font-size="13" font-weight="500">Health</text>
  <rect x="346.1" y="298.4" width="50.4" height="61.6" fill="#ef4444" rx="3" opacity="0.9"/>
  <text x="371.3" y="292.4" text-anchor="middle" fill="#f5f5f5" font-size="11" font-weight="500">1.0K</text>
  <rect x="399.8" y="298.6" width="50.4" height="61.4" fill="#eab308" rx="3" opacity="0.9"/>
  <text x="425.0" y="292.6" text-anchor="middle" fill="#f5f5f5" font-size="11" font-weight="500">1.0K</text>
  <rect x="453.4" y="343.6" width="50.4" height="16.4" fill="#22c55e" rx="3" opacity="0.9"/>
  <text x="478.7" y="337.6" text-anchor="middle" fill="#f5f5f5" font-size="11" font-weight="500">273</text>
  <text x="425.0" y="382" text-anchor="middle" fill="#f5f5f5" font-size="13" font-weight="500">Auth-Flow</text>
  <rect x="576.1" y="221.5" width="50.4" height="138.5" fill="#ef4444" rx="3" opacity="0.9"/>
  <text x="601.3" y="215.5" text-anchor="middle" fill="#f5f5f5" font-size="11" font-weight="500">2.3K</text>
  <rect x="629.8" y="221.5" width="50.4" height="138.5" fill="#eab308" rx="3" opacity="0.9"/>
  <text x="655.0" y="215.5" text-anchor="middle" fill="#f5f5f5" font-size="11" font-weight="500">2.3K</text>
  <rect x="683.4" y="314.5" width="50.4" height="45.5" fill="#22c55e" rx="3" opacity="0.9"/>
  <text x="708.7" y="308.5" text-anchor="middle" fill="#f5f5f5" font-size="11" font-weight="500">758</text>
  <text x="655.0" y="382" text-anchor="middle" fill="#f5f5f5" font-size="13" font-weight="500">Login-Sustained</text>
  <line x1="80" y1="60" x2="80" y2="360" stroke="#333333" stroke-width="1"/>
  <line x1="80" y1="360" x2="770" y2="360" stroke="#333333" stroke-width="1"/>
  <rect x="272.5" y="423" width="14" height="14" fill="#ef4444" rx="3"/>
  <text x="292.5" y="434" fill="#a3a3a3" font-size="12">baseline</text>
  <rect x="368.5" y="423" width="14" height="14" fill="#eab308" rx="3"/>
  <text x="388.5" y="434" fill="#a3a3a3" font-size="12">opt-v1</text>
  <rect x="449.5" y="423" width="14" height="14" fill="#22c55e" rx="3"/>
  <text x="469.5" y="434" fill="#a3a3a3" font-size="12">argon2id</text>
</svg>
