<svg xmlns="http://www.w3.org/2000/svg" viewBox="0 0 800 450" font-family="'Inter','Segoe UI',system-ui,-apple-system,sans-serif">
  <rect width="800" height="450" fill="#000000"/>
  <text x="400" y="34" text-anchor="middle" fill="#f5f5f5" font-size="18" font-weight="700">Login-Sustained Stress Latency</text>
  <text x="25" y="210" text-anchor="middle" fill="#a3a3a3" font-size="12" transform="rotate(-90,25,210)">Latency (ms)</text>
  <line x1="80" y1="360.0" x2="770" y2="360.0" stroke="#2a2a2a" stroke-width="0.5"/>
  <text x="70" y="364.0" text-anchor="end" fill="#a3a3a3" font-size="11">0.00</text>
  <line x1="80" y1="300.0" x2="770" y2="300.0" stroke="#2a2a2a" stroke-width="0.5" stroke-dasharray="4,4"/>
  <text x="70" y="304.0" text-anchor="end" fill="#a3a3a3" font-size="11">2.0K</text>
  <line x1="80" y1="240.0" x2="770" y2="240.0" stroke="#2a2a2a" stroke-width="0.5" stroke-dasharray="4,4"/>
  <text x="70" y="244.0" text-anchor="end" fill="#a3a3a3" font-size="11">4.0K</text>
  <line x1="80" y1="180.0" x2="770" y2="180.0" stroke="#2a2a2a" stroke-width="0.5" stroke-dasharray="4,4"/>
  <text x="70" y="184.0" text-anchor="end" fill="#a3a3a3" font-size="11">6.0K</text>
  <line x1="80" y1="120.0" x2="770" y2="120.0" stroke="#2a2a2a" stroke-width="0.5" stroke-dasharray="4,4"/>
  <text x="70" y="124.0" text-anchor="end" fill="#a3a3a3" font-size="11">8.0K</text>
  <line x1="80" y1="60.0" x2="770" y2="60.0" stroke="#2a2a2a" stroke-width="0.5" stroke-dasharray="4,4"/>
  <text x="70" y="64.0" text-anchor="end" fill="#a3a3a3" font-size="11">10.0K</text>
  <rect x="116.1" y="281.8" width="50.4" height="78.2" fill="#3b82f6" rx="3" opacity="0.9"/>
  <text x="141.3" y="275.8" text-anchor="middle" fill="#f5f5f5" font-size="11" font-weight="500">2.6K</text>
  <rect x="169.8" y="246.1" width="50.4" height="113.9" fill="#eab308" rx="3" opacity="0.9"/>
  <text x="195.0" y="240.1" text-anchor="middle" fill="#f5f5f5" font-size="11" font-weight="500">3.8K</text>
  <rect x="223.4" y="236.6" width="50.4" height="123.4" fill="#ef4444" rx="3" opacity="0.9"/>
  <text x="248.7" y="230.6" text-anchor="middle" fill="#f5f5f5" font-size="11" font-weight="500">4.1K</text>
  <text x="195.0" y="382" text-anchor="middle" fill="#f5f5f5" font-size="13" font-weight="500">baseline</text>
  <rect x="346.1" y="283.4" width="50.4" height="76.6" fill="#3b82f6" rx="3" opacity="0.9"/>
  <text x="371.3" y="277.4" text-anchor="middle" fill="#f5f5f5" font-size="11" font-weight="500">2.6K</text>
  <rect x="399.8" y="237.4" width="50.4" height="122.6" fill="#eab308" rx="3" opacity="0.9"/>
  <text x="425.0" y="231.4" text-anchor="middle" fill="#f5f5f5" font-size="11" font-weight="500">4.1K</text>
  <rect x="453.4" y="224.7" width="50.4" height="135.3" fill="#ef4444" rx="3" opacity="0.9"/>
  <text x="478.7" y="218.7" text-anchor="middle" fill="#f5f5f5" font-size="11" font-weight="500">4.5K</text>
  <text x="425.0" y="382" text-anchor="middle" fill="#f5f5f5" font-size="13" font-weight="500">opt-v1</text>
  <rect x="576.1" y="340.6" width="50.4" height="19.4" fill="#3b82f6" rx="3" opacity="0.9"/>
  <text x="601.3" y="334.6" text-anchor="middle" fill="#f5f5f5" font-size="11" font-weight="500">647</text>
  <rect x="629.8" y="304.9" width="50.4" height="55.1" fill="#eab308" rx="3" opacity="0.9"/>
  <text x="655.0" y="298.9" text-anchor="middle" fill="#f5f5f5" font-size="11" font-weight="500">1.8K</text>
  <rect x="683.4" y="262.9" width="50.4" height="97.1" fill="#ef4444" rx="3" opacity="0.9"/>
  <text x="708.7" y="256.9" text-anchor="middle" fill="#f5f5f5" font-size="11" font-weight="500">3.2K</text>
  <text x="655.0" y="382" text-anchor="middle" fill="#f5f5f5" font-size="13" font-weight="500">argon2id</text>
  <line x1="80" y1="60" x2="80" y2="360" stroke="#333333" stroke-width="1"/>
  <line x1="80" y1="360" x2="770" y2="360" stroke="#333333" stroke-width="1"/>
  <rect x="321.3" y="423" width="14" height="14" fill="#3b82f6" rx="3"/>
  <text x="341.3" y="434" fill="#a3a3a3" font-size="12">p50</text>
  <rect x="379.8" y="423" width="14" height="14" fill="#eab308" rx="3"/>
  <text x="399.8" y="434" fill="#a3a3a3" font-size="12">p95</text>
  <rect x="438.3" y="423" width="14" height="14" fill="#ef4444" rx="3"/>
  <text x="458.3" y="434" fill="#a3a3a3" font-size="12">p99</text>
</svg>
