<svg xmlns="http://www.w3.org/2000/svg" viewBox="0 0 800 450" font-family="'Inter','Segoe UI',system-ui,-apple-system,sans-serif">
  <rect width="800" height="450" fill="#000000"/>
  <text x="400" y="34" text-anchor="middle" fill="#f5f5f5" font-size="18" font-weight="700">Stress Test Throughput (Total Requests)</text>
  <text x="25" y="210" text-anchor="middle" fill="#a3a3a3" font-size="12" transform="rotate(-90,25,210)">Total Requests</text>
  <line x1="80" y1="360.0" x2="770" y2="360.0" stroke="#2a2a2a" stroke-width="0.5"/>
  <text x="70" y="364.0" text-anchor="end" fill="#a3a3a3" font-size="11">0.00</text>
  <line x1="80" y1="300.0" x2="770" y2="300.0" stroke="#2a2a2a" stroke-width="0.5" stroke-dasharray="4,4"/>
  <text x="70" y="304.0" text-anchor="end" fill="#a3a3a3" font-size="11">40.0K</text>
  <line x1="80" y1="240.0" x2="770" y2="240.0" stroke="#2a2a2a" stroke-width="0.5" stroke-dasharray="4,4"/>
  <text x="70" y="244.0" text-anchor="end" fill="#a3a3a3" font-size="11">80.0K</text>
  <line x1="80" y1="180.0" x2="770" y2="180.0" stroke="#2a2a2a" stroke-width="0.5" stroke-dasharray="4,4"/>
  <text x="70" y="184.0" text-anchor="end" fill="#a3a3a3" font-size="11">120K</text>
  <line x1="80" y1="120.0" x2="770" y2="120.0" stroke="#2a2a2a" stroke-width="0.5" stroke-dasharray="4,4"/>
  <text x="70" y="124.0" text-anchor="end" fill="#a3a3a3" font-size="11">160K</text>
  <line x1="80" y1="60.0" x2="770" y2="60.0" stroke="#2a2a2a" stroke-width="0.5" stroke-dasharray="4,4"/>
  <text x="70" y="64.0" text-anchor="end" fill="#a3a3a3" font-size="11">200K</text>
  <rect x="134.2" y="277.5" width="75.7" height="82.5" fill="#ef4444" rx="3" opacity="0.9"/>
  <text x="172.0" y="271.5" text-anchor="middle" fill="#f5f5f5" font-size="11" font-weight="500">55.0K</text>
  <rect x="214.7" y="277.2" width="75.7" height="82.8" fill="#eab308" rx="3" opacity="0.9"/>
  <text x="252.5" y="271.2" text-anchor="middle" fill="#f5f5f5" font-size="11" font-weight="500">55.2K</text>
  <rect x="295.2" y="159.7" width="75.7" height="200.3" fill="#22c55e" rx="3" opacity="0.9"/>
  <text x="333.0" y="153.7" text-anchor="middle" fill="#f5f5f5" font-size="11" font-weight="500">134K</text>
  <text x="252.5" y="382" text-anchor="middle" fill="#f5f5f5" font-size="13" font-weight="500">Auth-Flow</text>
  <rect x="479.2" y="316.4" width="75.7" height="43.6" fill="#ef4444" rx="3" opacity="0.9"/>
  <text x="517.0" y="310.4" text-anchor="middle" fill="#f5f5f5" font-size="11" font-weight="500">29.1K</text>
  <rect x="559.7" y="316.4" width="75.7" height="43.6" fill="#eab308" rx="3" opacity="0.9"/>
  <text x="597.5" y="310.4" text-anchor="middle" fill="#f5f5f5" font-size="11" font-weight="500">29.1K</text>
  <rect x="640.2" y="238.3" width="75.7" height="121.7" fill="#22c55e" rx="3" opacity="0.9"/>
  <text x="678.0" y="232.3" text-anchor="middle" fill="#f5f5f5" font-size="11" font-weight="500">81.1K</text>
  <text x="597.5" y="382" text-anchor="middle" fill="#f5f5f5" font-size="13" font-weight="500">Login-Sustained</text>
  <line x1="80" y1="60" x2="80" y2="360" stroke="#333333" stroke-width="1"/>
  <line x1="80" y1="360" x2="770" y2="360" stroke="#333333" stroke-width="1"/>
  <rect x="272.5" y="423" width="14" height="14" fill="#ef4444" rx="3"/>
  <text x="292.5" y="434" fill="#a3a3a3" font-size="12">baseline</text>
  <rect x="368.5" y="423" width="14" height="14" fill="#eab308" rx="3"/>
  <text x="388.5" y="434" fill="#a3a3a3" font-size="12">opt-v1</text>
  <rect x="449.5" y="423" width="14" height="14" fill="#22c55e" rx="3"/>
  <text x="469.5" y="434" fill="#a3a3a3" font-size="12">argon2id</text>
</svg>
